<svg xmlns="http://www.w3.org/2000/svg" xmlns:xlink="http://www.w3.org/1999/xlink" width="172" height="290" viewBox="0 0 172 290">
  <defs>
    <linearGradient id="linear-gradient" y1="0.5" x2="1" y2="0.5" gradientUnits="objectBoundingBox">
      <stop offset="0" stop-color="#e5e2df"/>
      <stop offset="0" stop-color="#ded9d6"/>
      <stop offset="0.063" stop-color="#cfcac8"/>
      <stop offset="0.183" stop-color="#a8a4a6"/>
      <stop offset="0.264" stop-color="#8b878d"/>
      <stop offset="0.522" stop-color="#f3f4f4"/>
      <stop offset="0.584" stop-color="#e4e5e5"/>
      <stop offset="0.703" stop-color="#bfbec0"/>
      <stop offset="0.865" stop-color="#847f84"/>
      <stop offset="0.876" stop-color="#807b80"/>
      <stop offset="1" stop-color="#d1d3d4"/>
      <stop offset="1" stop-color="#a7a9ac"/>
    </linearGradient>
    <linearGradient id="linear-gradient-2" x1="0.5" y1="-0.039" x2="0.5" y2="0.882" gradientUnits="objectBoundingBox">
      <stop offset="0" stop-color="#9c9c9c"/>
      <stop offset="0.237" stop-color="#bababa"/>
      <stop offset="0.566" stop-color="#dfdfdf"/>
      <stop offset="0.832" stop-color="#f6f6f6"/>
      <stop offset="1" stop-color="#fff"/>
      <stop offset="1" stop-color="#f1efed"/>
      <stop offset="1" stop-color="#e5e2df"/>
    </linearGradient>
    <radialGradient id="radial-gradient" cx="0.333" cy="0.428" r="0.851" gradientTransform="translate(0)" gradientUnits="objectBoundingBox">
      <stop offset="0" stop-color="#e6e6e6"/>
      <stop offset="0.11" stop-color="#dadada"/>
      <stop offset="0.494" stop-color="#b6b5b5"/>
      <stop offset="0.804" stop-color="#a19e9e"/>
      <stop offset="1" stop-color="#999696"/>
    </radialGradient>
    <radialGradient id="radial-gradient-2" cx="0.332" cy="0.428" r="0.85" gradientTransform="translate(0)" gradientUnits="objectBoundingBox">
      <stop offset="0" stop-color="#c4c4c4"/>
      <stop offset="0.089" stop-color="#b3b3b3"/>
      <stop offset="0.391" stop-color="gray"/>
      <stop offset="0.654" stop-color="#5b5b5b"/>
      <stop offset="0.866" stop-color="#454444"/>
      <stop offset="1" stop-color="#3d3c3c"/>
    </radialGradient>
    <linearGradient id="linear-gradient-3" x1="0.5" y1="1" x2="0.5" gradientUnits="objectBoundingBox">
      <stop offset="0.145"/>
      <stop offset="0.149" stop-color="#060606"/>
      <stop offset="0.179" stop-color="#323232"/>
      <stop offset="0.211" stop-color="#595959"/>
      <stop offset="0.246" stop-color="#7a7a7a"/>
      <stop offset="0.282" stop-color="#959595"/>
      <stop offset="0.322" stop-color="#aaa"/>
      <stop offset="0.367" stop-color="#b8b8b8"/>
      <stop offset="0.42" stop-color="#c1c1c1"/>
      <stop offset="0.505" stop-color="#c4c4c4"/>
      <stop offset="0.625" stop-color="#c2c2c2"/>
      <stop offset="0.668" stop-color="#bbb"/>
      <stop offset="0.699" stop-color="#afafaf"/>
      <stop offset="0.723" stop-color="#9e9e9e"/>
      <stop offset="0.745" stop-color="#888"/>
      <stop offset="0.764" stop-color="#6d6d6d"/>
      <stop offset="0.781" stop-color="#4c4c4c"/>
      <stop offset="0.796" stop-color="#282828"/>
      <stop offset="0.81"/>
    </linearGradient>
    <linearGradient id="linear-gradient-4" x1="-11.383" y1="-1591.425" x2="-11.383" y2="-1600.455" gradientUnits="objectBoundingBox">
      <stop offset="0"/>
      <stop offset="0.5" stop-color="#e6e6e6"/>
      <stop offset="0.679" stop-color="#888"/>
      <stop offset="0.834" stop-color="#3f3f3f"/>
      <stop offset="0.945" stop-color="#111"/>
      <stop offset="1"/>
    </linearGradient>
    <radialGradient id="radial-gradient-3" cx="0.333" cy="0.428" r="0.851" xlink:href="#radial-gradient"/>
    <radialGradient id="radial-gradient-4" cx="0.332" cy="0.428" r="0.852" gradientTransform="translate(0.001)" xlink:href="#radial-gradient-2"/>
    <linearGradient id="linear-gradient-6" x1="14.691" y1="-1817.313" x2="14.691" y2="-1826.296" xlink:href="#linear-gradient-4"/>
  </defs>
  <g id="_404_image" data-name="404 image" transform="translate(-34.011 -17.542)">
    <ellipse id="Ellipse_331" data-name="Ellipse 331" cx="83.369" cy="15.539" rx="83.369" ry="15.539" transform="translate(36.642 276.465)"/>
    <path id="Path_11751" data-name="Path 11751" d="M37.609,70.4c9.969-6.5,42.02-11.262,80.1-11.262s70.135,4.759,80.1,11.262c2.089-1.359,3.271-2.788,3.271-4.272,0-8.584-37.325-15.535-83.367-15.535S34.346,57.544,34.346,66.128C34.346,67.612,35.528,69.042,37.609,70.4Z" transform="translate(2.298 225.873)" fill="#666"/>
    <g id="Group_9644" data-name="Group 9644" transform="translate(34.011 17.542)">
      <g id="Group_9636" data-name="Group 9636" transform="translate(80.444 98.971)">
        <rect id="Rectangle_1007" data-name="Rectangle 1007" width="11.021" height="191.029" fill="url(#linear-gradient)"/>
      </g>
      <rect id="Rectangle_1008" data-name="Rectangle 1008" width="11.218" height="25.869" transform="translate(80.389 170.95)" fill="url(#linear-gradient-2)" style="mix-blend-mode: multiply;isolation: isolate"/>
      <g id="Group_9638" data-name="Group 9638">
        <path id="Path_11752" data-name="Path 11752" d="M84.389,190.156,34.011,139.6V68.1L84.389,17.542h71.243L206.011,68.1v71.5l-50.379,50.555Z" transform="translate(-34.011 -17.542)" fill="#f03424"/>
        <g id="Group_9637" data-name="Group 9637" transform="translate(4.817 4.822)">
          <path id="Path_11753" data-name="Path 11753" d="M149.428,181.129H82.179L34.624,133.394v-67.5L82.179,18.156h67.249l47.555,47.735v67.5ZM83.885,177h63.837l45.145-45.316V67.6L147.722,22.287H83.885L38.747,67.6v64.079Z" transform="translate(-34.624 -18.156)" fill="#fff"/>
        </g>
      </g>
      <g id="Group_9639" data-name="Group 9639" transform="translate(29.22 60.648)">
        <path id="Path_11754" data-name="Path 11754" d="M68.164,55.177h6.024V59.9a1.678,1.678,0,0,1-.432,1.147,1.6,1.6,0,0,1-1.257.479H68.164V73.2H61.017V61.53H40.849a2.307,2.307,0,0,1-2.254-1.791l-.825-4.131L60.428,25.348h7.736ZM61.017,39.532c0-.707.024-1.461.071-2.278s.118-1.665.236-2.552L46.472,55.177H61.017Z" transform="translate(-37.77 -24.853)" fill="#fff"/>
        <path id="Path_11755" data-name="Path 11755" d="M77.82,49.718a38.834,38.834,0,0,1-1.343,10.87,22.21,22.21,0,0,1-3.7,7.626,14.953,14.953,0,0,1-5.592,4.477,16.559,16.559,0,0,1-6.958,1.477A16.339,16.339,0,0,1,53.3,72.69a14.934,14.934,0,0,1-5.545-4.477,22.325,22.325,0,0,1-3.668-7.626,39.786,39.786,0,0,1-1.319-10.87,39.686,39.686,0,0,1,1.319-10.877,22.312,22.312,0,0,1,3.668-7.61A14.934,14.934,0,0,1,53.3,26.754a16.334,16.334,0,0,1,6.927-1.469,16.553,16.553,0,0,1,6.958,1.469,14.953,14.953,0,0,1,5.592,4.477,22.2,22.2,0,0,1,3.7,7.61A38.738,38.738,0,0,1,77.82,49.718Zm-8.435,0a40.167,40.167,0,0,0-.762-8.592A17.228,17.228,0,0,0,66.6,35.7a7.516,7.516,0,0,0-2.929-2.827,7.789,7.789,0,0,0-3.44-.809,7.642,7.642,0,0,0-3.393.809,7.387,7.387,0,0,0-2.89,2.827,17.252,17.252,0,0,0-2,5.427,41.338,41.338,0,0,0-.746,8.592,41.367,41.367,0,0,0,.746,8.6,17.177,17.177,0,0,0,2,5.427,7.279,7.279,0,0,0,2.89,2.827,7.537,7.537,0,0,0,3.393.809,7.683,7.683,0,0,0,3.44-.809A7.406,7.406,0,0,0,66.6,63.745a17.153,17.153,0,0,0,2.026-5.427A40.2,40.2,0,0,0,69.385,49.718Z" transform="translate(-3.508 -25.285)" fill="#fff"/>
        <path id="Path_11756" data-name="Path 11756" d="M77.933,55.177h6.024V59.9a1.678,1.678,0,0,1-.432,1.147,1.589,1.589,0,0,1-1.257.479H77.933V73.2H70.794V61.53H50.618a2.307,2.307,0,0,1-2.254-1.791l-.825-4.131L70.2,25.348h7.736ZM70.794,39.532c0-.707.024-1.461.063-2.278s.118-1.665.236-2.552L56.233,55.177H70.794Z" transform="translate(29.184 -24.853)" fill="#fff"/>
      </g>
      <g id="Group_9641" data-name="Group 9641" transform="translate(82.89 13.186)">
        <g id="Group_9640" data-name="Group 9640">
          <path id="Path_11757" data-name="Path 11757" d="M47.73,25.473a3.126,3.126,0,1,1,3.126-3.126A3.129,3.129,0,0,1,47.73,25.473Z" transform="translate(-44.604 -19.221)" fill="url(#radial-gradient)"/>
          <path id="Path_11758" data-name="Path 11758" d="M50.143,22.011a2.745,2.745,0,1,1-2.749-2.741A2.752,2.752,0,0,1,50.143,22.011Z" transform="translate(-44.268 -18.885)" fill="url(#radial-gradient-2)"/>
        </g>
        <rect id="Rectangle_1009" data-name="Rectangle 1009" width="0.595" height="5.373" transform="translate(2.834 0.408)" fill="url(#linear-gradient-3)" style="mix-blend-mode: screen;isolation: isolate"/>
        <rect id="Rectangle_1010" data-name="Rectangle 1010" width="5.369" height="0.595" transform="translate(0.444 2.797)" fill="url(#linear-gradient-4)" style="mix-blend-mode: screen;isolation: isolate"/>
      </g>
      <g id="Group_9643" data-name="Group 9643" transform="translate(82.89 152.829)">
        <g id="Group_9642" data-name="Group 9642">
          <path id="Path_11759" data-name="Path 11759" d="M47.73,43.3a3.126,3.126,0,1,1,3.126-3.126A3.134,3.134,0,0,1,47.73,43.3Z" transform="translate(-44.604 -37.046)" fill="url(#radial-gradient-3)"/>
          <path id="Path_11760" data-name="Path 11760" d="M50.143,39.836A2.745,2.745,0,1,1,47.394,37.1,2.745,2.745,0,0,1,50.143,39.836Z" transform="translate(-44.268 -36.71)" fill="url(#radial-gradient-4)"/>
        </g>
        <rect id="Rectangle_1011" data-name="Rectangle 1011" width="0.595" height="5.368" transform="translate(2.834 0.406)" fill="url(#linear-gradient-3)" style="mix-blend-mode: screen;isolation: isolate"/>
        <rect id="Rectangle_1012" data-name="Rectangle 1012" width="5.369" height="0.598" transform="translate(0.444 2.791)" fill="url(#linear-gradient-6)" style="mix-blend-mode: screen;isolation: isolate"/>
      </g>
    </g>
  </g>
</svg>
